<svg width="16" height="16" viewBox="0 0 16 16" fill="none" xmlns="http://www.w3.org/2000/svg">
<path fill-rule="evenodd" clip-rule="evenodd" d="M13.8397 14.59L10.4597 7V3H11.4597V2H2.45973V3H3.45973V7L0.0897254 14.59C-0.210275 15.25 0.279725 16 0.999725 16H12.9397C13.6597 16 14.1397 15.25 13.8497 14.59H13.8397ZM3.20973 10L4.45973 7V3H9.45973V7L10.7097 10H3.20973ZM7.45973 8H8.45973V9H7.45973V8ZM6.45973 7H5.45973V6H6.45973V7ZM6.45973 4H7.45973V5H6.45973V4ZM6.45973 1H5.45973V0H6.45973V1Z" transform="translate(0.539993)" fill="black"/>
</svg>
