<svg width="10" height="16" viewBox="0 0 10 16" fill="none" xmlns="http://www.w3.org/2000/svg">
<path fill-rule="evenodd" clip-rule="evenodd" d="M10 4C10 2.89 9.11 2 8 2C6.89 2 6 2.89 6 4C6 4.73 6.41 5.38 7 5.72V6.02C6.98 6.54 6.77 7 6.37 7.4C5.97 7.8 5.51 8.01 4.99 8.03C4.16 8.05 3.51 8.19 2.99 8.48V3.72C3.58 3.38 3.99 2.74 3.99 2C3.99 0.89 3.1 0 1.99 0C0.88 0 0 0.89 0 2C0 2.73 0.41 3.38 1 3.72V10.28C0.41 10.63 0 11.27 0 12C0 13.11 0.89 14 2 14C3.11 14 4 13.11 4 12C4 11.47 3.8 11 3.47 10.64C3.56 10.58 3.95 10.23 4.06 10.17C4.31 10.06 4.62 10 5 10C6.05 9.95 6.95 9.55 7.75 8.75C8.55 7.95 8.95 6.77 9 5.73H8.98C9.59 5.37 10 4.73 10 4ZM2 0.800003C2.66 0.800003 3.2 1.35 3.2 2C3.2 2.65 2.65 3.2 2 3.2C1.35 3.2 0.800003 2.65 0.800003 2C0.800003 1.35 1.35 0.800003 2 0.800003ZM2 13.21C1.34 13.21 0.800003 12.66 0.800003 12.01C0.800003 11.36 1.35 10.81 2 10.81C2.65 10.81 3.2 11.36 3.2 12.01C3.2 12.66 2.65 13.21 2 13.21ZM8 5.21C7.34 5.21 6.8 4.66 6.8 4.01C6.8 3.36 7.35 2.81 8 2.81C8.65 2.81 9.2 3.36 9.2 4.01C9.2 4.66 8.65 5.21 8 5.21Z" transform="translate(0 1)" fill="black"/>
</svg>
