<svg width="12" height="16" viewBox="0 0 12 16" fill="none" xmlns="http://www.w3.org/2000/svg">
<path fill-rule="evenodd" clip-rule="evenodd" d="M10 6.01C9.27 6.01 8.62 6.42 8.27 7.03V7.01C7.22 6.99 6 6.65 5.14 5.99C4.39 5.41 3.64 4.38 3.25 3.55C3.7 3.19 4 2.63 4 2C4 0.89 3.11 0 2 0C0.89 0 0 0.9 0 2.01C0 2.74 0.41 3.39 1 3.73V10.29C0.41 10.64 0 11.28 0 12.01C0 13.12 0.89 14.01 2 14.01C3.11 14.01 4 13.12 4 12.01C4 11.28 3.59 10.63 3 10.29V6.68C3.67 7.38 4.44 7.95 5.3 8.37C6.16 8.79 7.33 9 8.27 9.01V8.99C8.63 9.6 9.27 10.01 10 10.01C11.11 10.01 12 9.12 12 8.01C12 6.9 11.11 6.01 10 6.01ZM3.2 12.01C3.2 12.67 2.65 13.21 2 13.21C1.35 13.21 0.8 12.66 0.8 12.01C0.8 11.36 1.35 10.81 2 10.81C2.65 10.81 3.2 11.36 3.2 12.01ZM2 3.21C1.34 3.21 0.8 2.66 0.8 2.01C0.8 1.36 1.35 0.809998 2 0.809998C2.65 0.809998 3.2 1.36 3.2 2.01C3.2 2.66 2.65 3.21 2 3.21ZM10 9.21C9.34 9.21 8.8 8.66 8.8 8.01C8.8 7.36 9.35 6.81 10 6.81C10.65 6.81 11.2 7.36 11.2 8.01C11.2 8.66 10.65 9.21 10 9.21Z" transform="translate(0 0.989998)" fill="black"/>
</svg>
